<?xml version="1.0" encoding="utf-8"?>
<!-- Svg Vector Icons : http://www.onlinewebfonts.com/icon -->
<!DOCTYPE svg PUBLIC "-//W3C//DTD SVG 1.1//EN" "http://www.w3.org/Graphics/SVG/1.1/DTD/svg11.dtd">
<svg version="1.1" xmlns="http://www.w3.org/2000/svg" xmlns:xlink="http://www.w3.org/1999/xlink" x="0px" y="0px" viewBox="0 0 256 256" enable-background="new 0 0 256 256" xml:space="preserve">
<metadata> Svg Vector Icons : http://www.onlinewebfonts.com/icon </metadata>
<g><g><path fill="#000000" d="M246,128.8c0,56.1-39.2,103-91.7,115v-98h28.4V113H154v-7.3c0-14,6.1-25.4,20.8-25.4c5.9,0,10.5,0.9,14.3,2l1.7-34.2c-6.1-1.8-13.7-2.9-23.7-2.9c-12.9,0-28.4,3.8-39.4,14.3c-12.9,11.7-18.1,30.7-18.1,47.9v5.6H90.9v32.8h18.7v99.5C53.2,236.3,10,187.7,10,128.8c0-65.2,52.8-118,118-118C193.2,10.8,246,63.6,246,128.8z"/></g></g>
</svg>